<?xml version="1.0" encoding="UTF-8" standalone="no"?>
<!-- Created with Inkscape (http://www.inkscape.org/) -->
<svg
   xmlns="http://www.w3.org/2000/svg"
   version="1.0"
   viewBox="0 0 184 184"
>
  <defs>
    <path
      id="sharp"
      class="jp-icon-brand1 jp-icon-selectable"
      fill="#0288D1"
      d="M 52.984422,75.138892 L 25.888974,83.986385 L 25.888974,125.18252 L 52.984422,116.33503 L 52.984422,75.138892 M 5.9821143,61.867652 L 17.870933,57.996874 L 17.870933,12.929955 L 25.888974,12.929955 L 25.888974,55.232032 L 52.984422,46.384539 L 52.984422,6.0178512 L 61.002462,6.0178512 L 61.002462,43.896181 L 71.785345,40.301887 L 71.785345,69.05624 L 61.002462,72.650534 L 61.002462,113.57019 L 71.785345,110.25238 L 71.785345,138.73025 L 61.002462,142.32454 L 61.002462,187.39146 L 52.984422,187.39146 L 52.984422,144.8129 L 25.888974,153.66039 L 25.888974,194.58005 L 17.870933,194.58005 L 17.870933,156.42523 L 5.9821143,160.29601 L 5.9821143,131.54166 L 17.870933,127.67088 L 17.870933,86.474742 L 5.9821143,90.34552 L 5.9821143,61.867652"
    />
  </defs>
  <g transform="translate(16 44) scale(0.6 0.6)">
    <use x="14" href="#sharp" />
    <use x="92" href="#sharp" />
  </g>
  <path
    class="jp-icon4"
    fill="#777"
    d="M100,26 L0,26 L0,180 L158,180 L158,80 L142,80 L142,164 L16,164 L16,42 L100,42 Z"
  />
  <path
    class="jp-icon3"
    fill="#616161"
    d="M7.32966 7.44454C8.0831 7.00954 8.33932 6.05332 7.90432 5.29988C7.46932 4.54643 6.5081 4.28156 5.75466 4.71656C5.39176 4.92608 5.12695 5.27118 5.01849 5.67594C4.91004 6.08071 4.96682 6.51198 5.17634 6.87488C5.61134 7.62832 6.57622 7.87954 7.32966 7.44454ZM9.65718 4.79593L10.8672 4.95179C10.9628 4.97741 11.0402 5.07133 11.0382 5.18793L11.0388 6.98893C11.0455 7.10054 10.9616 7.19518 10.855 7.21054L9.66001 7.38083L9.23915 8.13188L9.66961 9.25745C9.70729 9.36271 9.66934 9.47699 9.57408 9.53199L8.01523 10.432C7.91131 10.492 7.79337 10.4677 7.72105 10.3824L6.98748 9.43188L6.10931 9.43083L5.34704 10.3905C5.28909 10.4702 5.17383 10.4905 5.07187 10.4339L3.51245 9.53293C3.41049 9.47633 3.37647 9.35741 3.41075 9.25679L3.86347 8.14093L3.61749 7.77488L3.42347 7.37883L2.23075 7.21297C2.12647 7.19235 2.04049 7.10342 2.04245 6.98682L2.04187 5.18582C2.04383 5.06922 2.11909 4.97958 2.21704 4.96922L3.42065 4.79393L3.86749 4.02788L3.41105 2.91731C3.37337 2.81204 3.41131 2.69776 3.51523 2.63776L5.07408 1.73776C5.16934 1.68276 5.28729 1.70704 5.35961 1.79231L6.11915 2.72788L6.98001 2.73893L7.72496 1.78922C7.79156 1.70458 7.91548 1.67922 8.00879 1.74082L9.56821 2.64182C9.67017 2.69842 9.71285 2.81234 9.68723 2.90797L9.21718 4.03383L9.46316 4.39988L9.65718 4.79593Z"
    transform="translate(94 -12) scale(8 8)"
  />
</svg>
