<?xml version="1.0" encoding="UTF-8" standalone="no"?>
<!-- Created with Inkscape (http://www.inkscape.org/) -->
<svg
   xmlns:svg="http://www.w3.org/2000/svg"
   xmlns="http://www.w3.org/2000/svg"
   version="1.0"
   viewBox="8 8 184 184"
>
  <defs>
    <path
      id="sharp"
      d="M 52.984422,75.138892 L 25.888974,83.986385 L 25.888974,125.18252 L 52.984422,116.33503 L 52.984422,75.138892 M 5.9821143,61.867652 L 17.870933,57.996874 L 17.870933,12.929955 L 25.888974,12.929955 L 25.888974,55.232032 L 52.984422,46.384539 L 52.984422,6.0178512 L 61.002462,6.0178512 L 61.002462,43.896181 L 71.785345,40.301887 L 71.785345,69.05624 L 61.002462,72.650534 L 61.002462,113.57019 L 71.785345,110.25238 L 71.785345,138.73025 L 61.002462,142.32454 L 61.002462,187.39146 L 52.984422,187.39146 L 52.984422,144.8129 L 25.888974,153.66039 L 25.888974,194.58005 L 17.870933,194.58005 L 17.870933,156.42523 L 5.9821143,160.29601 L 5.9821143,131.54166 L 17.870933,127.67088 L 17.870933,86.474742 L 5.9821143,90.34552 L 5.9821143,61.867652"
      transform="scale(1.00299,0.997019)"
      class="jp-icon-brand1 jp-icon-selectable"
      fill="#0288D1"
      style="fill-opacity:1;stroke:none;stroke-width:1px;stroke-linecap:butt;stroke-linejoin:miter;stroke-opacity:1;"
    />
  </defs>
  <use x="22" href="#sharp" />
  <use x="100" href="#sharp" />
</svg>
